
        <svg xmlns="http://www.w3.org/2000/svg" xmlns:xlink="http://www.w3.org/1999/xlink" version="1.1" width="3147.783251231527" height="642.3567500403494" viewBox="0 0 3147.783251231527 642.3567500403494">
			
			<g transform="scale(7.389162561576355) translate(10, 10)">
				<defs id="SvgjsDefs3806"><linearGradient id="SvgjsLinearGradient3812"><stop id="SvgjsStop3813" stop-color="#006838" offset="0"/><stop id="SvgjsStop3814" stop-color="#96cf24" offset="1"/></linearGradient></defs><g id="SvgjsG3807" featureKey="symbolFeature-0" transform="matrix(0.7048772870460146,0,0,0.7048772870460146,-8.671381595252576,-1.7932546426357647)" fill="#000"><switch xmlns="http://www.w3.org/2000/svg"><foreignObject requiredExtensions="http://ns.adobe.com/AdobeIllustrator/10.0/" x="0" y="0" width="1" height="1"/><g xmlns:i="http://ns.adobe.com/AdobeIllustrator/10.0/" i:extraneous="self"><g><path d="M46.9,96c0,0.8,0.7,1.5,1.5,1.5c0.8,0,1.5-0.7,1.5-1.5v-4.1h-3V96z"/><path d="M38.8,96c0,0.8,0.7,1.5,1.5,1.5s1.5-0.7,1.5-1.5v-4.1h-3V96z"/><path d="M87.4,5.1c-0.1-2.3-3-3.4-4.6-1.8C69.2,17.2,48,16.7,46.7,31.4c-0.3,3.2,0.8,6.3,2.9,9c10-10,20.7-13.5,21.2-13.6     c0.1,0,0.2-0.1,0.4-0.1c-2.8,1.6-19,11.5-26.1,29.7c-3.7-5.7-9.4-12.7-14.2-16.6c-3.2-3-5.9-4.8-6.8-5.3c0.1,0,0.1,0,0.2,0.1     c0.4,0.1,8.6,2.1,15.7,9.6c1.4-1.9,1.8-3.3,1.6-5.6c-0.7-10.7-16-10.7-25.7-21c-1.2-1.2-3.2-0.5-3.4,1.2     c-0.7,9.5,0.2,25.8,6.9,30.6c3.7,2.7,9.5,2.3,14.1,0.2c4,4.5,7.8,9.9,9.4,13.3c-0.8,3.3-1.2,6.7-1.3,10.4v4.2     c-3,1-5.1,3.8-5.1,7.2v2.7h-0.4c-0.8,0-1.5,0.7-1.5,1.5s0.7,1.5,1.5,1.5h16c0.8,0,1.5-0.7,1.5-1.5s-0.7-1.5-1.5-1.5H52v-2.7     c0-3.4-2.2-6.2-5.2-7.2v-4.1c0.2-11.1,4.6-20.2,9.9-27c6.4,3.5,14.6,4.5,20.2,0.7C86.3,40.7,88.1,18.2,87.4,5.1z"/></g></g></switch></g><g id="SvgjsG3808" featureKey="textGroupContainer" transform="matrix(1,0,0,1,405,11)" fill="#000"><rect xmlns="http://www.w3.org/2000/svg" y="0" height="1" width="1" opacity="0"/><rect xmlns="http://www.w3.org/2000/svg" y="0" x="-332" width="3" height="46"/></g><g id="SvgjsG3809" featureKey="nameFeature-0" transform="matrix(0.7823742011966822,0,0,0.7823742011966822,90.38841723573924,14.091317552415651)" fill="#000"><path d="M20.02 11.777000000000001 l0 5.1563 l-6.6992 0 l0 23.066 l-5.8008 0 l0 -23.066 l-6.7383 0 l0 -5.1563 l19.238 0 z M43.2076953125 11.777000000000001 l5.8594 0 l0 28.223 l-5.8594 0 l0 -11.602 l-11.934 0 l0 11.602 l-5.8594 0 l0 -28.223 l5.8594 0 l0 11.523 l11.934 0 l0 -11.523 z M73.701640625 16.934 l-10.469 0 l0 6.4063 l9.2773 0 l0 5.0977 l-9.2773 0 l0 6.3867 l10.469 0 l0 5.1758 l-16.367 0 l0 -28.223 l16.367 0 l0 5.1563 z M101.4254375 40.39063 c-6.0547 0 -10.781 -2.9102 -11.641 -8.2031 l6.0547 -1.3867 c0.39063 3.1641 2.7148 4.8047 5.8203 4.8047 c2.3828 0 4.2773 -1.0547 4.2578 -3.4375 c-0.019531 -2.6563 -3.1445 -3.4961 -6.582 -4.5508 c-4.1406 -1.2891 -8.5742 -2.8125 -8.5742 -8.0078 c0 -5.2539 4.2969 -8.2227 9.9609 -8.2227 c4.9609 0 9.9609 2.0117 11.094 7.4219 l-5.6641 1.4063 c-0.52734 -2.8125 -2.4219 -4.043 -5.0781 -4.043 c-2.3633 0 -4.375 0.97656 -4.375 3.3008 c0 2.168 2.7734 2.8906 5.9766 3.8477 c4.2578 1.2891 9.2969 2.9297 9.2969 8.5547 c0 5.9961 -5.0195 8.5156 -10.547 8.5156 z M128.7943828125 40.39063 c-6.1914 0 -11.035 -3.1641 -11.035 -10.273 l0 -18.34 l5.8594 0 l0 17.539 c0 4.2969 2.2852 5.8984 5.1758 5.8984 c2.9102 0 5.2148 -1.6211 5.2148 -5.8984 l0 -17.539 l5.8594 0 l0 18.34 c0 7.1094 -4.8633 10.273 -11.074 10.273 z M159.287484375 11.777000000000001 c5.5273 0 8.9648 4.1016 8.9648 9.1211 c0 5.1367 -3.4375 8.9844 -8.9648 8.9844 l-5.8789 0 l0 10.117 l-5.8594 0 l0 -28.223 l11.738 0 z M158.310484375 24.98 c2.9297 0 4.2969 -1.6211 4.2969 -4.1602 c0 -2.4414 -1.3672 -4.1406 -4.2969 -4.1406 l-4.9023 0 l0 8.3008 l4.9023 0 z M190.5033984375 16.934 l-10.469 0 l0 6.4063 l9.2773 0 l0 5.0977 l-9.2773 0 l0 6.3867 l10.469 0 l0 5.1758 l-16.367 0 l0 -28.223 l16.367 0 l0 5.1563 z M212.40265625 40 l-7.3438 -12.422 l-1.6992 0 l0 12.422 l-5.8594 0 l0 -28.223 l10.234 0 c6.3867 0 9.082 3.7695 9.082 8.4375 c0 3.7891 -2.1484 6.25 -5.9766 7.0703 l8.4961 12.715 l-6.9336 0 z M203.35935625 16.641 l0 6.7383 l3.457 0 c3.125 0 4.3945 -1.3281 4.3945 -3.3594 c0 -2.0117 -1.2695 -3.3789 -4.3945 -3.3789 l-3.457 0 z M242.3873828125 11.777000000000001 l5.8594 0 l0 28.223 l-5.8594 0 l0 -11.602 l-11.934 0 l0 11.602 l-5.8594 0 l0 -28.223 l5.8594 0 l0 11.523 l11.934 0 l0 -11.523 z M266.963328125 40.39063 c-6.1914 0 -11.035 -3.1641 -11.035 -10.273 l0 -18.34 l5.8594 0 l0 17.539 c0 4.2969 2.2852 5.8984 5.1758 5.8984 c2.9102 0 5.2148 -1.6211 5.2148 -5.8984 l0 -17.539 l5.8594 0 l0 18.34 c0 7.1094 -4.8633 10.273 -11.074 10.273 z M318.0614296875 40 l-5.8398 0 l-1.8555 -21.27 l-7.1484 21.27 l-3.7891 0 l-7.1484 -21.27 l-1.875 21.27 l-5.8594 0 l2.3633 -28.223 l8.3594 0 l6.0156 17.715 l6.0938 -17.715 l8.3594 0 z M344.04290625 40 l-2.0508 -5.8203 l-11.855 0 l-2.0508 5.8203 l-5.9961 0 l10.391 -28.223 l7.168 0 l10.391 28.223 l-5.9961 0 z M331.85590625 29.277 l8.418 0 l-4.1992 -11.973 z M374.5169140625 11.777000000000001 l5.8398 0 l0 28.223 l-6.7773 0 l-12.5 -20.176 l0 20.176 l-5.8398 0 l0 -28.223 l6.6992 0 l12.578 20.059 l0 -20.059 z"/></g>
			</g>
		</svg>
	